<svg xmlns="http://www.w3.org/2000/svg" viewBox="0 0 64 64">
  <rect width="64" height="64" rx="12" fill="#fff"/>
  <path d="M32 6c-6 0-11 2-14 6s-4 9-3 15c1 5 3 10 5 15 2 4 4 9 5 13 .5 2 1.5 3 3 3s2.5-1 3-3l1-4c.5-2 1.5-2 2-2s1.5 0 2 2l1 4c.5 2 1.5 3 3 3s2.5-1 3-3c1-4 3-9 5-13 2-5 4-10 5-15 1-6 0-11-3-15S38 6 32 6z" fill="none" stroke="#222" stroke-width="3" stroke-linecap="round" stroke-linejoin="round"/>
  <ellipse cx="32" cy="14" rx="10" ry="5" fill="none" stroke="#222" stroke-width="2" opacity="0.3"/>
</svg>
